<svg xmlns="http://www.w3.org/2000/svg" version="1.1" xmlns:xlink="http://www.w3.org/1999/xlink" xmlns:svgjs="http://svgjs.dev/svgjs" width="1000" height="1000" viewBox="0 0 1000 1000"><rect width="1000" height="1000" fill="#cf5260"></rect><g transform="matrix(0.7,0,0,0.7,149.57575757575756,282.1265587044535)"><svg viewBox="0 0 396 247" data-background-color="#cf5260" preserveAspectRatio="xMidYMid meet" height="623" width="1000" xmlns="http://www.w3.org/2000/svg" xmlns:xlink="http://www.w3.org/1999/xlink"><g id="tight-bounds" transform="matrix(1,0,0,1,0.2400000000000091,-0.09999999999999432)"><svg viewBox="0 0 395.52 247.2" height="247.2" width="395.52"><g><svg></svg></g><g><svg viewBox="0 0 395.52 247.2" height="247.2" width="395.52"><g transform="matrix(1,0,0,1,139.05282514285713,47.215199999999996)"><svg viewBox="0 0 117.41434971428572 152.7696" height="152.7696" width="117.41434971428572"><g><svg viewBox="0 0 117.41434971428572 152.7696" height="152.7696" width="117.41434971428572"><g><svg viewBox="0 0 117.41434971428572 152.7696" height="152.7696" width="117.41434971428572"><g><svg viewBox="0 0 117.41434971428572 152.7696" height="152.7696" width="117.41434971428572"><g id="textblocktransform"><svg viewBox="0 0 117.41434971428572 152.7696" height="152.7696" width="117.41434971428572" id="textblock"><g><svg viewBox="0 0 117.41434971428572 152.7696" height="152.7696" width="117.41434971428572"><g transform="matrix(1,0,0,1,0,0)"><svg width="117.41434971428572" viewBox="2.299999952316284 -35 26.900001525878906 35" height="152.7696" data-palette-color="#111111"><path d="M19.35 0L3.65 0 3.65-4.25 18.8-4.25Q20.55-4.25 21.8-5.08 23.05-5.9 23.75-7.2 24.45-8.5 24.45-9.95L24.45-9.95Q24.45-11.45 23.78-12.73 23.1-14 21.88-14.78 20.65-15.55 18.9-15.55L18.9-15.55 12.3-15.55Q9.35-15.55 7.1-16.78 4.85-18 3.58-20.18 2.3-22.35 2.3-25.1L2.3-25.1Q2.3-27.9 3.53-30.15 4.75-32.4 6.98-33.7 9.2-35 12.1-35L12.1-35 26.95-35 26.95-30.75 12.55-30.75Q10.9-30.75 9.65-29.98 8.4-29.2 7.75-27.98 7.1-26.75 7.1-25.35L7.1-25.35Q7.1-24 7.73-22.78 8.35-21.55 9.58-20.8 10.8-20.05 12.4-20.05L12.4-20.05 19.15-20.05Q22.3-20.05 24.55-18.8 26.8-17.55 28-15.4 29.2-13.25 29.2-10.5L29.2-10.5Q29.2-7.45 27.98-5.08 26.75-2.7 24.5-1.35 22.25 0 19.35 0L19.35 0Z" opacity="1" transform="matrix(1,0,0,1,0,0)" fill="#111111" class="undefined-text-0" data-fill-palette-color="primary" id="text-0"></path></svg></g></svg></g></svg></g></svg></g></svg></g></svg></g></svg></g><path d="M74.166 41.215L74.166 0 321.366 0 321.366 247.2 74.166 247.2 74.166 205.985 87.943 205.985 87.943 233.423 307.589 233.423 307.589 13.777 87.943 13.777 87.943 41.215Z" fill="#111111" stroke="transparent" data-fill-palette-color="primary"></path></svg></g><defs></defs></svg><rect width="395.52" height="247.2" fill="none" stroke="none" visibility="hidden"></rect></g></svg></g></svg>